Coordinates
version=1
nRows=24
nColumns=24
inDegrees=yes

Units are S.I. units (second, meters, Newtons, ...)
If the header above contains a line with 'inDegrees', this indicates whether rotational values are in degrees (yes) or radians (no).

endheader
time	pelvis_tilt	pelvis_list	pelvis_rotation	pelvis_tx	pelvis_ty	pelvis_tz	hip_flexion_r	hip_adduction_r	hip_rotation_r	knee_angle_r	ankle_angle_r	subtalar_angle_r	mtp_angle_r	hip_flexion_l	hip_adduction_l	hip_rotation_l	knee_angle_l	ankle_angle_l	subtalar_angle_l	mtp_angle_l	lumbar_extension	lumbar_bending	lumbar_rotation
      1.00000000	     11.61091753	     -3.26700370	      0.34536897	      0.60480879	      1.00310701	      0.04227815	    -12.38494837	      4.44243289	     -4.33975435	     -8.16429317	      2.54431917	      3.14423999	      0.00000000	     15.27134391	    -10.27318598	     -6.71798211	    -61.59483580	     -3.71311528	      8.67532333	      0.00000000	    -27.05375255	      5.76300994	      1.78967938
      1.01700000	     11.94036843	     -3.09121662	      0.15423696	      0.60329863	      1.00382868	      0.04331000	    -14.50613859	      4.31670291	     -4.25551931	     -6.94387796	      2.62612231	      3.35515418	      0.00000000	     15.69567836	     -9.67795523	     -6.95703146	    -57.59446428	     -3.27259619	      7.91950844	      0.00000000	    -27.48090844	      5.38342185	      1.98460082
      1.03300000	     12.02420337	     -3.05232634	     -0.09591722	      0.60129536	      1.00373622	      0.04460241	    -16.33575006	      4.35489007	     -3.99740833	     -5.73501282	      2.64006315	      3.02115383	      0.00000000	     16.22228313	     -9.42499616	     -7.53951040	    -53.19672833	     -3.18225844	      6.99388047	      0.00000000	    -27.69265392	      5.12242940	      2.30008624
      1.05000000	     12.07089535	     -3.00247387	     -0.01894468	      0.59925335	      1.00323719	      0.04517516	    -18.03743514	      4.39778090	     -4.27624692	     -4.72393220	      2.75439258	      3.23191402	      0.00000000	     16.58590177	     -9.03244178	     -7.95342186	    -48.24704038	     -3.40870933	      5.68067335	      0.00000000	    -27.84981189	      4.97427924	      2.10761613
      1.06700000	     11.79523447	     -3.24079534	     -0.22377848	      0.59646979	      1.00187281	      0.04595714	    -19.14341528	      4.62912424	     -4.26602624	     -4.07838510	      2.95587137	      3.56869611	      0.00000000	     17.02888237	     -8.98193502	     -8.61826437	    -42.87792814	     -3.73817076	      4.34172303	      0.00000000	    -27.71924692	      5.02681477	      2.52962209
      1.08300000	     11.64498929	     -3.34978561	     -0.28099466	      0.59442968	      1.00041187	      0.04632053	    -20.71171031	      4.73995356	     -3.58818071	     -2.90613070	      2.80887792	      3.26911512	      0.00000000	     16.96413958	     -8.69507671	     -9.30845625	    -36.98496963	     -4.16954935	      3.21071352	      0.00000000	    -27.72180205	      4.97286848	      2.42889738
      1.10000000	     10.79610311	     -3.76096656	     -0.57354697	      0.59148713	      0.99741136	      0.04691108	    -21.03260868	      5.05406442	     -3.59945043	     -2.64092524	      3.25224840	      3.89747692	      0.00000000	     17.77964200	     -8.85023411	    -10.17123190	    -31.40145232	     -4.65235953	      2.99934123	      0.00000000	    -27.05699905	      5.16582106	      2.89152005
      1.11700000	     10.16225780	     -3.94096992	     -0.69103107	      0.58902310	      0.99464913	      0.04681079	    -21.64597839	      5.16629237	     -3.45426465	     -2.35967226	      3.65306240	      4.20330361	      0.00000000	     17.90223904	     -8.47952967	    -10.50900803	    -25.21598996	     -5.00916983	      3.23341686	      0.00000000	    -26.61591513	      5.23529212	      2.75769455
      1.13300000	      9.57133274	     -4.26311074	     -0.97455370	      0.58641389	      0.99157757	      0.04644401	    -22.18080378	      5.32679593	     -2.96744125	     -2.31755505	      4.03313460	      4.06407979	      0.00000000	     17.92772085	     -8.31594292	    -10.79324292	    -19.31315881	     -5.13051734	      4.49879707	      0.00000000	    -26.22758142	      5.35696293	      3.04577138
      1.15000000	      9.45269809	     -4.25414392	     -0.88141982	      0.58493940	      0.98899878	      0.04533220	    -23.39731440	      5.19446796	     -3.14042194	     -1.95200567	      4.42090646	      4.90239651	      0.00000000	     17.00149091	     -7.55192186	    -10.16798555	    -13.02279445	     -5.41211819	      5.69524200	      0.00000000	    -26.16552394	      5.29376261	      2.92651874
      1.16700000	      9.16382184	     -4.34453725	     -1.10866979	      0.58388139	      0.98584633	      0.04451699	    -24.48111073	      5.08895910	     -3.11614340	     -1.58072133	      4.74335471	      5.36171974	      0.00000000	     16.38848869	     -7.12291706	     -9.69826619	     -7.79787384	     -5.55113288	      7.24620896	      0.00000000	    -26.01736141	      5.16959478	      2.59105907
      1.18300000	      9.45771262	     -4.42363496	     -1.39252795	      0.58330182	      0.98339705	      0.04366825	    -26.01395709	      4.83693862	     -3.29280280	     -1.60872069	      5.22090976	      6.33794687	      0.00000000	     15.27628256	     -6.81337470	     -9.31218471	     -3.79938732	     -5.44121664	      8.88471535	      0.00000000	    -26.35071275	      5.00593812	      2.93868788
      1.20000000	      9.36051376	     -4.34813634	     -1.60030261	      0.58343247	      0.98034088	      0.04261612	    -27.15771559	      4.47660789	     -3.81499108	     -1.59544535	      5.64154891	      7.57937392	      0.00000000	     14.91692955	     -6.39598238	     -8.69878502	     -1.40699102	     -5.30378094	      9.79123376	      0.00000000	    -26.26241169	      4.69225222	      2.45581188
      1.21700000	      9.73855826	     -4.35111702	     -1.76893378	      0.58350503	      0.97822904	      0.04156520	    -28.43861369	      4.11680933	     -4.33940836	     -2.26511514	      6.02552376	      8.83330271	      0.00000000	     14.74358345	     -6.19216952	     -8.29606423	     -1.36872142	     -4.73834957	     10.63246650	      0.00000000	    -26.66439093	      4.40056459	      2.47802817
      1.23300000	      9.90960455	     -4.41679645	     -2.07124516	      0.58381699	      0.97591182	      0.04090660	    -29.33285606	      3.77223999	     -4.41192249	     -3.16760816	      6.33895809	      9.66562054	      0.00000000	     15.18272565	     -6.16884971	     -7.97944957	     -3.05358099	     -4.17540473	     10.95961689	      0.00000000	    -26.79893938	      4.06953795	      2.27069003
      1.25000000	      9.99130801	     -4.38601560	     -2.62935995	      0.58534409	      0.97387919	      0.03967638	    -29.93820121	      3.10327464	     -4.51361558	     -4.59573858	      6.41661781	     10.74403709	      0.00000000	     15.74480987	     -6.08158202	     -7.89967144	     -5.73862232	     -3.93944847	     10.72252241	      0.00000000	    -26.72719158	      3.63343297	      2.57552573
      1.26700000	      9.86363740	     -4.46215976	     -2.71010222	      0.58727925	      0.97167197	      0.03837303	    -30.10548977	      2.80378223	     -4.56292440	     -6.34839184	      6.37023260	     11.32367072	      0.00000000	     16.80927921	     -6.05519242	     -7.33812973	     -9.19842512	     -4.23426297	     10.08741576	      0.00000000	    -26.36793532	      3.42452357	      2.47264263
      1.28300000	      9.97231957	     -4.75501438	     -2.92171456	      0.58883386	      0.97050240	      0.03754160	    -30.13715458	      2.63510133	     -4.42174346	     -8.70206759	      5.83480198	     11.65694534	      0.00000000	     17.24607638	     -6.31249732	     -7.19242575	    -12.16024641	     -5.14338355	      9.41002590	      0.00000000	    -26.37523926	      3.30885060	      2.46941949
      1.30000000	      9.58579273	     -4.83760625	     -3.24274437	      0.59075187	      0.96913721	      0.03625453	    -29.42296917	      2.15188102	     -4.45641633	    -11.39560208	      5.19046330	     12.38147731	      0.00000000	     18.28523883	     -6.43241851	     -7.16669345	    -15.37555453	     -6.08484174	      8.73414262	      0.00000000	    -25.79586579	      2.95752838	      2.36094117
      1.31700000	      9.59163756	     -4.71790816	     -3.39054309	      0.59379381	      0.96913854	      0.03435265	    -28.67472701	      1.49103187	     -4.59078833	    -14.83865138	      3.96283644	     12.78689849	      0.00000000	     18.53044735	     -6.27620144	     -7.18680183	    -18.07423320	     -6.73467501	      8.23863364	      0.00000000	    -25.51421298	      2.53785850	      1.92261800
      1.33300000	      9.84531683	     -4.36497126	     -3.54823402	      0.59719781	      0.97016602	      0.03205131	    -27.70191621	      0.49349021	     -4.86197346	    -19.01185322	      2.36831223	     13.18341620	      0.00000000	     18.12980541	     -5.82708141	     -7.26269279	    -20.24760522	     -6.95108524	      7.75983851	      0.00000000	    -25.42280418	      1.86707070	      1.66102361
      1.35000000	     10.09644274	     -3.78104108	     -3.40472257	      0.60042230	      0.97142083	      0.02882565	    -26.05898118	     -0.73690145	     -5.76028081	    -24.19119116	      0.27999778	     13.48581322	      0.00000000	     17.55098511	     -4.96310425	     -6.81692542	    -22.04279953	     -6.82280966	      7.12728841	      0.00000000	    -25.26155211	      1.17429573	      0.93411382
      1.36700000	     10.06783253	     -2.90400816	     -3.30169724	      0.60328666	      0.97274877	      0.02487441	    -23.37186335	     -2.46884404	     -6.76378134	    -30.35862613	     -2.64529421	     13.56215511	      0.00000000	     16.92247237	     -3.78542645	     -6.74009626	    -23.22896304	     -6.47762660	      6.72614667	      0.00000000	    -24.96661187	      0.24333940	      0.19593045
      1.38300000	     10.07797922	     -1.94173017	     -3.26131741	      0.60587812	      0.97434844	      0.02098264	    -20.24291818	     -4.41887780	     -7.71423642	    -36.89844660	     -6.31034136	     12.63905250	      0.00000000	     15.90024802	     -2.56004108	     -6.98822988	    -23.87232241	     -5.68412737	      6.77516149	      0.00000000	    -24.67446062	     -0.76724144	     -0.36321011
